<svg width="36" height="10" viewBox="0 0 36 10" fill="none" xmlns="http://www.w3.org/2000/svg">
<path d="M5.2785 9.75523C2.74306 9.75523 0.74707 7.75924 0.74707 5.2238C0.74707 2.74231 2.74306 0.638428 5.2785 0.638428C7.81394 0.638428 9.86387 2.74231 9.86387 5.2238C9.86387 7.75924 7.81394 9.75523 5.2785 9.75523Z" fill="white"/>
<path d="M18.2655 9.75523C15.73 9.75523 13.734 7.75924 13.734 5.2238C13.734 2.74231 15.73 0.638428 18.2655 0.638428C20.8009 0.638428 22.8508 2.74231 22.8508 5.2238C22.8508 7.75924 20.8009 9.75523 18.2655 9.75523Z" fill="white"/>
<path d="M31.2525 9.75523C28.717 9.75523 26.721 7.75924 26.721 5.2238C26.721 2.74231 28.717 0.638428 31.2525 0.638428C33.7879 0.638428 35.8378 2.74231 35.8378 5.2238C35.8378 7.75924 33.7879 9.75523 31.2525 9.75523Z" fill="white"/>
</svg>
