<svg width="221" height="22" viewBox="0 0 221 22" fill="none" xmlns="http://www.w3.org/2000/svg">
<g clip-path="url(#clip0_599_2728)">
<path d="M0 0H9.85755V1.22556H12.3534V2.45112H13.6013V3.67667H14.8493V4.90223H16.0972V7.35335H17.3451V14.6449H16.0972V17.096H14.8493V18.3216H13.6013V19.5471H12.3534V20.7727H9.85755V21.9982H0V0ZM5.88899 18.733C9.82518 18.733 13.2813 15.0864 13.2813 11.0018C13.2813 6.91716 9.82518 3.26874 5.88899 3.26874C4.38573 3.26874 3.64848 3.96099 3.64848 5.37374V16.6263C3.64848 18.0408 4.38393 18.7313 5.88899 18.7313V18.733Z" fill="white"/>
<path d="M18.8184 22V18.3233H20.0663V14.6767H21.3142V12.2256H22.5621V8.57891H23.8101V6.12779H25.058V2.45112H26.3059V0H31.2671V2.45112H32.515V6.12779H33.7629V8.57891H35.0108V12.2256H36.2588V14.6767H37.5067V18.3233H38.7546V22H35.3309L33.9553 18.1962C33.4752 16.907 32.5797 16.2166 31.3318 16.2166H26.02C24.7721 16.2166 23.9395 16.877 23.4271 18.1962L22.0515 22H18.8184ZM28.6741 13.5147C30.7222 13.5147 31.5871 13.0432 31.5871 11.9112C31.5871 11.4715 31.5224 11.189 31.3318 10.6857L29.539 6.03419C29.379 5.62626 29.0913 5.40552 28.6741 5.40552C28.2893 5.40552 28.0016 5.62626 27.8416 6.03419L26.0488 10.6857C25.824 11.189 25.7611 11.4715 25.7611 11.9112C25.7611 13.0114 26.6566 13.5147 28.6741 13.5147Z" fill="white"/>
<path d="M41.4707 0H45.0868V8.10917C45.0868 8.95858 45.4069 9.3983 46.0794 9.3983C46.4948 9.3983 46.8796 9.17756 47.4244 8.58067L55.2015 0H58.7852V2.4829H57.5373V3.70846H56.2894V4.93402H55.0415V6.15958H53.7935V7.38513H52.5456V8.61069H51.2977V9.83625H52.5456V11.0618H53.7935V12.2874H55.0415V14.7067H56.2894V15.9323H57.5373V18.3516H58.7852V19.5771H60.0332V21.9965H56.3847L50.4328 13.384C49.7926 12.441 49.2478 12.0949 48.3523 12.0949C47.6474 12.0949 47.0073 12.441 46.3995 13.1315C45.5346 14.1381 45.0868 15.1111 45.0868 16.3367V21.9947H41.4707V0Z" fill="white"/>
<path d="M61.7002 22V18.3233H62.9481V14.6767H64.1961V12.2256H65.444V8.57891H66.6919V6.12779H67.9398V2.45112H69.1878V0H74.1489V2.45112H75.3968V6.12779H76.6448V8.57891H77.8927V12.2256H79.1406V14.6767H80.3885V18.3233H81.6365V22H78.2128L76.8372 18.1962C76.357 16.907 75.4616 16.2166 74.2136 16.2166H68.9018C67.6539 16.2166 66.8214 16.877 66.3089 18.1962L64.9333 22H61.7002ZM71.5577 13.5147C73.6059 13.5147 74.4708 13.0432 74.4708 11.9112C74.4708 11.4715 74.406 11.189 74.2154 10.6857L72.4227 6.03419C72.2626 5.62626 71.9749 5.40552 71.5577 5.40552C71.1729 5.40552 70.8852 5.62626 70.7252 6.03419L68.9324 10.6857C68.7076 11.189 68.6447 11.4715 68.6447 11.9112C68.6447 13.0114 69.5402 13.5147 71.5577 13.5147Z" fill="white"/>
<path d="M90.1836 22V18.3233H91.4315V14.6767H92.6794V12.2256H93.9274V8.57891H95.1753V6.12779H96.4232V2.45112H97.6712V0H102.632V2.45112H103.88V6.12779H105.128V8.57891H106.376V12.2256H107.624V14.6767H108.872V18.3233H110.12V22H106.696L105.321 18.1962C104.84 16.907 103.945 16.2166 102.697 16.2166H97.3853C96.1373 16.2166 95.3048 16.877 94.7923 18.1962L93.4167 22H90.1836ZM100.039 13.5147C102.087 13.5147 102.952 13.0432 102.952 11.9112C102.952 11.4715 102.888 11.189 102.697 10.6857L100.904 6.03419C100.744 5.62626 100.457 5.40552 100.039 5.40552C99.6545 5.40552 99.3668 5.62626 99.2068 6.03419L97.414 10.6857C97.1892 11.189 97.1263 11.4715 97.1263 11.9112C97.1263 13.0114 98.0218 13.5147 100.039 13.5147Z" fill="white"/>
<path d="M112.837 0H124.005V1.22556H126.469V2.45112H127.717V4.90223H128.965V8.54888H127.717V11H126.469V12.2256H124.005V13.4511H125.253V14.6767H126.501V17.096H127.749V18.3216H128.997V19.5471H130.245V21.9982H126.341L121.317 14.9575C120.517 13.8255 119.749 13.4176 118.596 13.4176C117.156 13.4176 116.453 14.1398 116.453 15.5861V21.9982H112.837V0ZM118.406 10.3095H120.422C123.077 10.3095 124.71 8.9886 124.71 6.85182C124.71 4.71504 122.982 3.17515 120.422 3.17515H118.406C117.093 3.17515 116.453 3.74025 116.453 5.09295V8.3617C116.453 9.68261 117.093 10.3095 118.406 10.3095Z" fill="white"/>
<path d="M139.259 20.7744H136.763V19.5489H135.515V18.3233H134.267V17.0978H133.019V14.6467H131.771V7.35511H133.019V4.904H134.267V3.67844H135.515V2.45288H136.763V1.22732H139.259V0H146.908V1.22556H149.404V2.45112H150.652V3.67667H151.9V4.90223H153.148V7.38513H150.748C149.467 7.38513 148.764 6.59929 147.964 5.75165C146.524 4.24354 145.051 3.55129 142.812 3.55129C138.811 3.55129 135.74 6.75646 135.74 11C135.74 15.2435 138.813 18.4487 142.812 18.4487C145.085 18.4487 146.525 17.7565 147.964 16.2484C148.764 15.3989 149.467 14.6149 150.748 14.6149H153.148V17.0978H151.9V18.3233H150.652V19.5489H149.404V20.7744H146.908V22H139.259V20.7744Z" fill="white"/>
<path d="M156.601 0H160.217V6.78825C160.217 8.29636 160.922 8.9886 162.457 8.9886H167.514C169.049 8.9886 169.754 8.29636 169.754 6.78825V0H173.37V22H169.754V14.4577C169.754 12.9496 169.049 12.2256 167.514 12.2256H162.457C160.922 12.2256 160.217 12.9478 160.217 14.4577V22H156.601V0Z" fill="white"/>
<path d="M177.999 0H181.615V22H177.999V0Z" fill="white"/>
<path d="M191.765 19.5489H190.517V15.9022H189.269V13.4511H188.021V9.80446H186.773V7.35335H185.525V3.67667H184.277V0H187.958L193.559 15.7786C193.655 16.1865 193.944 16.4073 194.327 16.4073C194.71 16.4073 194.935 16.2183 195.095 15.7786L200.695 0H204.151V3.67667H202.903V7.35335H201.655V9.80446H200.407V13.4511H199.159V15.9022H197.911V19.5489H196.663V22H191.767V19.5489H191.765Z" fill="white"/>
<path d="M206.854 0H221V3.23696H212.487C211.112 3.23696 210.407 3.95922 210.407 5.34195V6.72468C210.407 8.29636 211.079 8.98684 212.582 8.98684H217.864C219.016 8.98684 219.752 9.64729 219.752 10.6521C219.752 11.6569 219.016 12.2856 217.864 12.2856H212.615C211.079 12.2856 210.407 12.9778 210.407 14.5177V16.6227C210.407 18.069 211.079 18.7595 212.455 18.7595H221V21.9965H206.854V0Z" fill="white"/>
</g>
<defs>
<clipPath id="clip0_599_2728">
<rect width="221" height="22" fill="white"/>
</clipPath>
</defs>
</svg>
